<svg width="38" height="38" viewBox="0 0 38 38" fill="none" xmlns="http://www.w3.org/2000/svg">
<path fill-rule="evenodd" clip-rule="evenodd" d="M6.63457 33.9134L2.64245 28.9402C1.68196 27.7436 1.16064 26.2722 1.16064 24.7578V6.74947C1.16064 4.48103 2.97552 2.59873 5.31683 2.43888L23.8319 1.17479C25.177 1.08295 26.5139 1.44048 27.6188 2.18753L34.124 6.58572C35.2885 7.37301 35.9821 8.66 35.9821 10.0334V30.5072C35.9821 32.7271 34.1975 34.5652 31.9052 34.7063L11.3556 35.9712C9.5263 36.0838 7.75813 35.3131 6.63457 33.9134Z" fill="white"/>
<path d="M13.0561 15.761V15.5252C13.0561 14.9276 13.5348 14.4319 14.1517 14.3907L18.6452 14.0907L24.8593 23.2415V15.2101L23.2598 14.9969V14.8849C23.2598 14.2803 23.7494 13.7813 24.3742 13.7493L28.4628 13.5399V14.1283C28.4628 14.4045 28.2574 14.6407 27.9759 14.6883L26.992 14.8548V27.8614L25.7572 28.286C24.7256 28.6408 23.5771 28.261 22.9866 27.3699L16.9537 18.2663V26.9552L18.8106 27.3106L18.7848 27.4828C18.7037 28.0223 18.2379 28.4303 17.6745 28.4554L13.0561 28.661C12.9951 28.0808 13.4299 27.5618 14.0297 27.4988L14.6372 27.4349V15.8498L13.0561 15.761Z" fill="#1B1D21"/>
<path fill-rule="evenodd" clip-rule="evenodd" d="M23.9979 3.44354L5.48288 4.70764C4.37384 4.78336 3.51416 5.67497 3.51416 6.7495V24.7578C3.51416 25.7675 3.8617 26.7484 4.50203 27.5461L8.49415 32.5193C9.1396 33.3234 10.1554 33.7662 11.2062 33.7015L31.7558 32.4365C32.8091 32.3717 33.629 31.5272 33.629 30.5072V10.0335C33.629 9.40243 33.3103 8.81111 32.7753 8.44938L26.2701 4.05119C25.6071 3.60296 24.805 3.38844 23.9979 3.44354ZM6.401 7.0304C6.14349 6.83975 6.26604 6.44256 6.58954 6.41935L24.1225 5.16178C24.6811 5.12171 25.2362 5.27554 25.688 5.59562L29.2058 8.08796C29.3394 8.18258 29.2767 8.38685 29.1114 8.39584L10.5441 9.40565C9.98215 9.43621 9.42751 9.27113 8.98074 8.94035L6.401 7.0304ZM9.67318 12.5713C9.67318 11.9681 10.1605 11.4699 10.7836 11.4359L30.4145 10.3668C31.0218 10.3337 31.5331 10.8008 31.5331 11.3887V29.1168C31.5331 29.7189 31.0475 30.2166 30.4256 30.252L10.919 31.3619C10.2431 31.4004 9.67318 30.881 9.67318 30.2267V12.5713Z" fill="#1B1D21"/>
</svg>
